# File created by Blade
# Date/Time:  Wed Apr 08 17:20:14 2015
#---------------------------------------------------------
:version 1.10
:name HOM
:units
  mass 1.0
  length 1.000000
  angle deg
:documentation
     Acclaim Skeleton File
:root
   axis xyz
   order TX TY TZ RX RY RZ
   position 0.000000 0.000000 0.000000
   orientation 0 0 0
:bonedata
   begin
      id 1
      name Spine_dum
      direction 0.000000 1.000000 0.000000
      length 5.893853
      axis 0.0 0.0 0.0 xyz
   end
   begin
      id 2
      name LeftUpLeg_dum
      direction 1.000000 0.000000 0.000000
      length 3.697939
      axis 0.0 0.0 0.0 xyz
   end
   begin
      id 3
      name RightUpLeg_dum
      direction -1.000000 0.000000 0.000000
      length 3.697939
      axis 0.0 0.0 0.0 xyz
   end
   begin
      id 4
      name Spine
      direction 0.000000 1.000000 0.000000
      length 0.000000
      axis 0.0 0.0 0.0 xyz
      dof rx ry rz
   end
   begin
      id 5
      name Spine_dum1
      direction 0.000000 1.000000 0.000000
      length 16.447146
      axis 0.0 0.0 0.0 xyz
   end
   begin
      id 6
      name Spine_dum2
      direction 0.000000 1.000000 0.000000
      length 10.900383
      axis 0.0 0.0 0.0 xyz
   end
   begin
      id 7
      name Spine_dum3
      direction 0.000000 1.000000 0.000000
      length 10.900383
      axis 0.0 0.0 0.0 xyz
   end
   begin
      id 8
      name Head
      direction 0.000000 1.000000 0.000000
      length 4.527550
      axis 0.0 0.0 0.0 xyz
      dof rx ry rz
   end
   begin
      id 9
      name LeftShoulder
      direction 1.000000 0.000000 0.000000
      length 8.219464
      axis 0.0 0.0 -90.0 xyz
      dof rx ry rz
   end
   begin
      id 10
      name LeftArm
      direction 1.000000 0.000000 0.000000
      length 11.094937
      axis 0.0 0.0 -90.0 xyz
      dof rx ry rz
   end
   begin
      id 11
      name LeftForeArm
      direction 1.000000 0.000000 0.000000
      length 9.103875
      axis 0.0 0.0 -90.0 xyz
      dof ry rz rx
   end
   begin
      id 12
      name LeftHand
      direction 0.000000 0.000000 0.000000
      length 0.000000
      axis 0.0 0.0 -90.0 xyz
      dof rx ry rz
   end
   begin
      id 13
      name LeftHand_dum1
      direction 0.000000 0.000000 0.000000
      length 0.000000
      axis 0.0 0.0 -90.0 xyz
   end
   begin
      id 14
      name LeftHand_dum2
      direction 1.000000 0.000000 0.000000
      length 3.937000
      axis 0.0 0.0 -90.0 xyz
   end
   begin
      id 15
      name LeftHandThumb1
      direction 0.000000 0.000000 1.000000
      length 3.937000
      axis 0.0 0.0 -90.0 xyz
      dof rx rz ry
   end
   begin
      id 16
      name RightShoulder
      direction -1.000000 0.000000 0.000000
      length 8.219464
      axis 0.0 0.0 90.0 xyz
      dof rx ry rz
   end
   begin
      id 17
      name RightArm
      direction -1.000000 0.000000 0.000000
      length 11.094937
      axis 0.0 0.0 90.0 xyz
      dof rx ry rz
   end
   begin
      id 18
      name RightForeArm
      direction -1.000000 0.000000 0.000000
      length 9.103875
      axis 0.0 0.0 90.0 xyz
      dof ry rz rx
   end
   begin
      id 19
      name RightHand
      direction 0.000000 0.000000 0.000000
      length 0.000000
      axis 0.0 0.0 90.0 xyz
      dof rx ry rz
   end
   begin
      id 20
      name RightHand_dum1
      direction 0.000000 0.000000 0.000000
      length 0.000000
      axis 0.0 0.0 90.0 xyz
   end
   begin
      id 21
      name RightHand_dum2
      direction -1.000000 0.000000 0.000000
      length 3.937000
      axis 0.0 0.0 90.0 xyz
   end
   begin
      id 22
      name RightHandThumb1
      direction 0.000000 0.000000 1.000000
      length 3.937000
      axis 0.0 0.0 90.0 xyz
      dof rx rz ry
   end
   begin
      id 23
      name LeftUpLeg
      direction 0.000000 -1.000000 0.000000
      length 16.181467
      axis 0.0 0.0 0.0 xyz
      dof rx ry rz
   end
   begin
      id 24
      name LeftLeg
      direction 0.000000 -1.000000 0.000000
      length 16.501392
      axis 0.0 0.0 0.0 xyz
      dof rx ry rz
   end
   begin
      id 25
      name LeftFoot
      direction 0.000000 -0.258819 0.965926
      length 6.408245
      axis 15.0 0.0 0.0 xyz
      dof rx ry rz
   end
   begin
      id 26
      name LeftToeBase
      direction 0.000000 0.000000 1.000000
      length 2.952750
      axis 0.0 0.0 0.0 xyz
      dof rx ry rz
   end
   begin
      id 27
      name RightUpLeg
      direction 0.000000 -1.000000 0.000000
      length 16.181467
      axis 0.0 0.0 0.0 xyz
      dof rx ry rz
   end
   begin
      id 28
      name RightLeg
      direction 0.000000 -1.000000 0.000000
      length 16.501392
      axis 0.0 0.0 0.0 xyz
      dof rx ry rz
   end
   begin
      id 29
      name RightFoot
      direction 0.000000 -0.258819 0.965926
      length 6.408245
      axis 15.0 0.0 0.0 xyz
      dof rx ry rz
   end
   begin
      id 30
      name RightToeBase
      direction 0.000000 0.000000 1.000000
      length 2.952750
      axis 0.0 0.0 0.0 xyz
      dof rx ry rz
   end
:hierarchy
   begin
      root Spine_dum LeftUpLeg_dum RightUpLeg_dum
      Spine_dum Spine
      LeftUpLeg_dum LeftUpLeg
      RightUpLeg_dum RightUpLeg
      Spine Spine_dum1 Spine_dum2 Spine_dum3
      Spine_dum1 Head
      Spine_dum2 LeftShoulder
      Spine_dum3 RightShoulder
      LeftShoulder LeftArm
      LeftArm LeftForeArm
      LeftForeArm LeftHand
      LeftHand LeftHand_dum1 LeftHand_dum2
      LeftHand_dum1 LeftHandThumb1
      RightShoulder RightArm
      RightArm RightForeArm
      RightForeArm RightHand
      RightHand RightHand_dum1 RightHand_dum2
      RightHand_dum1 RightHandThumb1
      LeftUpLeg LeftLeg
      LeftLeg LeftFoot
      LeftFoot LeftToeBase
      RightUpLeg RightLeg
      RightLeg RightFoot
      RightFoot RightToeBase
   end

# File created by Blade
# Date/Time:  Wed Apr 08 17:19:54 2015
# Frame Rate: 120.000 fps
#------------------------------------------------------
:FULLY-SPECIFIED
:DEGREES
425
root 6.666442 35.646635 0.758315 -5.611560 -45.991821 -0.085971
Spine 10.357541 -0.463819 5.860177
Head 18.424362 30.557394 6.844316
LeftShoulder -5.475607 14.513411 16.268974
LeftArm 24.094297 8.165570 -76.714593
LeftForeArm 19.579542 -0.000000 31.887135
LeftHand -12.398195 -0.000000 -8.111310
LeftHandThumb1 -26.253704 0.000000 33.147579
RightShoulder -27.360327 -46.798863 20.847637
RightArm 62.530865 -19.427632 47.305879
RightForeArm 21.091907 -0.000000 4.358761
RightHand -6.609300 -0.000000 16.864179
RightHandThumb1 -24.326973 -0.000000 -32.862282
LeftUpLeg 5.533920 10.380049 -6.926024
LeftLeg 13.704689 -0.000000 -0.000000
LeftFoot -17.949056 0.096476 -2.354505
LeftToeBase 13.291312 -0.000000 -0.000000
RightUpLeg -38.832891 16.548440 -8.036310
RightLeg 154.298520 -0.000000 -0.000000
RightFoot 6.487159 9.791955 5.727542
RightToeBase 0.477325 -0.000000 -0.000000
426
root 6.664265 35.668558 0.779388 -5.703457 -45.663656 -0.151162
Spine 10.307371 -0.476631 5.931852
Head 18.770406 30.626442 7.002456
LeftShoulder -5.578621 14.488642 16.278446
LeftArm 23.915210 8.851003 -76.965262
LeftForeArm 19.636679 0.000000 32.033430
LeftHand -12.527863 0.000000 -8.121644
LeftHandThumb1 -26.253704 0.000000 33.147579
RightShoulder -27.301776 -46.780380 20.788136
RightArm 62.379719 -19.385340 47.222375
RightForeArm 21.273632 -0.000000 4.543210
RightHand -6.681115 -0.000000 16.933368
RightHandThumb1 -24.326973 -0.000000 -32.862282
LeftUpLeg 5.924921 10.377107 -6.747265
LeftLeg 13.349709 -0.000000 -0.000000
LeftFoot -18.010647 -0.743651 -3.200642
LeftToeBase 14.322021 -0.000000 -0.000000
RightUpLeg -38.937905 16.530277 -8.260997
RightLeg 154.285027 -0.000000 -0.000000
RightFoot 7.299464 10.241799 5.246182
RightToeBase 1.231906 -0.000000 -0.000000
427
root 6.658701 35.690754 0.796237 -5.778576 -45.282849 -0.201326
Spine 10.227545 -0.506586 5.937393
Head 19.045129 30.603247 7.193548
LeftShoulder -5.646369 14.547542 16.290609
LeftArm 23.787154 9.601142 -77.106623
LeftForeArm 19.616930 -0.000000 32.214318
LeftHand -12.468263 0.000000 -8.326915
LeftHandThumb1 -26.253704 0.000000 33.147579
RightShoulder -27.285649 -46.702022 20.769178
RightArm 62.158519 -19.284865 47.362448
RightForeArm 21.248975 0.000000 4.663312
RightHand -6.695463 -0.000000 17.199527
RightHandThumb1 -24.326973 -0.000000 -32.862282
LeftUpLeg 6.278782 10.392307 -6.565589
LeftLeg 13.005358 -0.000000 -0.000000
LeftFoot -18.002112 -1.593095 -3.988756
LeftToeBase 15.116044 -0.000000 -0.000000
RightUpLeg -39.068555 16.471090 -8.532327
RightLeg 154.269035 -0.000000 -0.000000
RightFoot 8.057928 10.814924 5.414503
RightToeBase 1.699477 -0.000000 -0.000000
428
root 6.650301 35.716559 0.811874 -5.803344 -44.799239 -0.276626
Spine 10.086802 -0.633079 5.913727
Head 19.305153 30.581367 7.474879
LeftShoulder -5.708400 14.709224 16.271035
LeftArm 23.752555 10.407660 -77.143861
LeftForeArm 19.585461 -0.000000 32.359045
LeftHand -12.361266 -0.000000 -8.523236
LeftHandThumb1 -26.253704 0.000000 33.147579
RightShoulder -27.461946 -46.702299 20.963239
RightArm 62.183819 -19.257682 47.177745
RightForeArm 21.470246 -0.000000 4.719975
RightHand -6.600673 -0.000000 17.016954
RightHandThumb1 -24.326973 -0.000000 -32.862282
LeftUpLeg 6.613891 10.390595 -6.356582
LeftLeg 12.641205 -0.000000 -0.000000
LeftFoot -17.963546 -2.535650 -4.791125
LeftToeBase 15.736066 -0.000000 -0.000000
RightUpLeg -39.207271 16.282971 -8.817662
RightLeg 154.275260 -0.000000 -0.000000
RightFoot 8.747154 11.676410 5.762012
RightToeBase 2.043057 -0.000000 -0.000000
429
root 6.641465 35.744754 0.822411 -5.740596 -44.279537 -0.433086
Spine 9.944081 -0.778179 5.942035
Head 19.415709 30.535968 7.673142
LeftShoulder -5.792969 14.842278 16.212103
LeftArm 23.729756 11.232497 -77.151610
LeftForeArm 19.572425 -0.000000 32.484721
LeftHand -12.263381 -0.000000 -8.675050
LeftHandThumb1 -26.253704 0.000000 33.147579
RightShoulder -27.622774 -46.669068 21.116905
RightArm 62.124804 -19.126028 47.280034
RightForeArm 21.471785 0.000000 4.711946
RightHand -6.564802 -0.000000 17.047763
RightHandThumb1 -24.326973 -0.000000 -32.862282
LeftUpLeg 6.898151 10.477297 -6.070792
LeftLeg 12.306125 -0.000000 -0.000000
LeftFoot -17.903694 -3.530529 -5.547416
LeftToeBase 16.390113 -0.000000 -0.000000
RightUpLeg -39.330842 15.995519 -9.037501
RightLeg 154.242534 -0.000000 -0.000000
RightFoot 9.313131 12.200170 6.138650
RightToeBase 2.517910 -0.000000 -0.000000
430
root 6.630288 35.774264 0.833627 -5.704090 -43.718256 -0.609838
Spine 9.842096 -0.908398 5.972522
Head 19.479623 30.392641 7.880836
LeftShoulder -5.779427 14.960122 16.197065
LeftArm 23.653773 12.062813 -77.181405
LeftForeArm 19.878215 -0.000000 32.606376
LeftHand -11.795335 -0.000000 -9.270509
LeftHandThumb1 -26.253704 0.000000 33.147579
RightShoulder -27.829630 -46.624280 21.264607
RightArm 62.044183 -18.993553 47.514195
RightForeArm 21.397280 -0.000000 4.690635
RightHand -6.574470 0.000000 16.983082
RightHandThumb1 -24.326973 -0.000000 -32.862282
LeftUpLeg 7.218148 10.590533 -5.758520
LeftLeg 11.973224 -0.000000 -0.000000
LeftFoot -17.796642 -4.443814 -6.176755
LeftToeBase 16.897610 -0.000000 -0.000000
RightUpLeg -39.385428 15.658369 -9.231853
RightLeg 154.249291 -0.000000 -0.000000
RightFoot 9.667301 12.692590 6.706805
RightToeBase 2.937812 -0.000000 -0.000000
431
root 6.619212 35.804868 0.839322 -5.619735 -43.093604 -0.790598
Spine 9.677231 -1.059288 5.974754
Head 19.551428 30.196286 8.122203
LeftShoulder -5.730740 15.045104 16.210559
LeftArm 23.584236 12.927283 -77.186157
LeftForeArm 20.195062 -0.000000 32.656506
LeftHand -11.486630 -0.000000 -9.862116
LeftHandThumb1 -26.253704 0.000000 33.147579
RightShoulder -27.979662 -46.592125 21.367588
RightArm 61.873701 -18.868941 47.851995
RightForeArm 21.330142 -0.000000 4.718470
RightHand -6.568432 -0.000000 16.829398
RightHandThumb1 -24.326973 -0.000000 -32.862282
LeftUpLeg 7.465582 10.639319 -5.462525
LeftLeg 11.662224 -0.000000 -0.000000
LeftFoot -17.655573 -5.288958 -6.772338
LeftToeBase 17.301599 -0.000000 -0.000000
RightUpLeg -39.463549 15.195658 -9.401008
RightLeg 154.236335 -0.000000 -0.000000
RightFoot 9.948060 12.837792 6.825497
RightToeBase 3.100756 -0.000000 -0.000000
432
root 6.602075 35.835962 0.841771 -5.505574 -42.491060 -0.981547
Spine 9.488153 -1.140201 5.945609
Head 19.594179 29.963922 8.429236
LeftShoulder -5.696363 15.093835 16.254232
LeftArm 23.533567 13.839770 -77.189266
LeftForeArm 20.528353 -0.000000 32.628569
LeftHand -11.345158 -0.000000 -10.239283
LeftHandThumb1 -26.253704 0.000000 33.147579
RightShoulder -28.184879 -46.628066 21.574196
RightArm 61.741232 -18.699013 48.158438
RightForeArm 21.208351 -0.000000 4.755253
RightHand -6.505378 -0.000000 16.891220
RightHandThumb1 -24.326973 -0.000000 -32.862282
LeftUpLeg 7.695735 10.661971 -5.164288
LeftLeg 11.330670 -0.000000 -0.000000
LeftFoot -17.490385 -6.019886 -7.381365
LeftToeBase 17.462585 -0.000000 -0.000000
RightUpLeg -39.534196 14.775118 -9.544300
RightLeg 154.235713 -0.000000 -0.000000
RightFoot 9.920162 12.746582 6.892508
RightToeBase 3.063671 -0.000000 -0.000000
433
root 6.590169 35.865112 0.836688 -5.334057 -41.875985 -1.219410
Spine 9.304064 -1.257042 5.954547
Head 19.541835 29.787176 8.648603
LeftShoulder -5.697312 15.126352 16.266608
LeftArm 23.498925 14.793129 -77.156438
LeftForeArm 20.922417 -0.000000 32.577289
LeftHand -11.212343 -0.000000 -10.641837
LeftHandThumb1 -26.253704 0.000000 33.147579
RightShoulder -28.216469 -46.597099 21.569657
RightArm 61.544263 -18.671334 48.420022
RightForeArm 21.309414 -0.000000 4.831729
RightHand -6.447235 -0.000000 16.727567
RightHandThumb1 -24.326973 -0.000000 -32.862282
LeftUpLeg 7.831536 10.652527 -4.854150
LeftLeg 11.080928 -0.000000 -0.000000
LeftFoot -17.345342 -6.608429 -7.854869
LeftToeBase 17.542470 -0.000000 -0.000000
RightUpLeg -39.695717 14.361284 -9.749951
RightLeg 154.227067 -0.000000 -0.000000
RightFoot 9.745062 12.589096 6.901571
RightToeBase 2.709589 -0.000000 -0.000000
434
root 6.567999 35.895966 0.828426 -5.191166 -41.314058 -1.508523
Spine 9.197974 -1.273684 5.980295
Head 19.460251 29.604226 8.895426
LeftShoulder -5.685099 15.115649 16.292464
LeftArm 23.477277 15.806860 -77.083703
LeftForeArm 21.293875 -0.000000 32.496981
LeftHand -11.141997 -0.000000 -11.112711
LeftHandThumb1 -26.253704 0.000000 33.147579
RightShoulder -28.309877 -46.618515 21.691261
RightArm 61.415456 -18.595742 48.562400
RightForeArm 21.450059 -0.000000 4.903826
RightHand -6.434157 -0.000000 16.847078
RightHandThumb1 -24.326973 -0.000000 -32.862282
LeftUpLeg 8.025636 10.687458 -4.474473
LeftLeg 10.850240 -0.000000 -0.000000
LeftFoot -17.185964 -7.182005 -8.286291
LeftToeBase 17.346189 -0.000000 -0.000000
RightUpLeg -39.752069 14.021445 -9.786913
RightLeg 154.223373 -0.000000 -0.000000
RightFoot 9.521808 12.355381 6.963991
RightToeBase 2.046925 -0.000000 -0.000000
435
root 6.545030 35.924506 0.833156 -5.233140 -40.881725 -1.692592
Spine 9.231721 -1.184641 5.935084
Head 19.357206 29.483338 9.097530
LeftShoulder -5.681100 15.108125 16.321723
LeftArm 23.469701 16.809040 -77.035206
LeftForeArm 21.719860 0.000000 32.338828
LeftHand -11.115742 -0.000000 -11.395788
LeftHandThumb1 -26.253704 0.000000 33.147579
RightShoulder -28.311683 -46.646888 21.694189
RightArm 61.303869 -18.638551 48.592192
RightForeArm 21.806807 -0.000000 5.036022
RightHand -6.475580 -0.000000 16.765368
RightHandThumb1 -24.326973 -0.000000 -32.862282
LeftUpLeg 8.366235 10.809834 -4.174108
LeftLeg 10.571470 -0.000000 -0.000000
LeftFoot -17.002238 -7.598421 -8.662112
LeftToeBase 16.935329 -0.000000 -0.000000
RightUpLeg -39.727145 13.776326 -9.883875
RightLeg 154.237298 -0.000000 -0.000000
RightFoot 9.190264 11.927465 6.659297
RightToeBase 1.989700 -0.000000 -0.000000
436
root 6.519654 35.952433 0.833094 -5.198147 -40.446629 -1.954088
Spine 9.245832 -1.107110 5.949706
Head 19.239388 29.449987 9.261356
LeftShoulder -5.728209 15.125764 16.292756
LeftArm 23.538955 17.896042 -76.875466
LeftForeArm 22.048114 -0.000000 32.158682
LeftHand -11.198737 -0.000000 -11.640653
LeftHandThumb1 -26.253704 0.000000 33.147579
RightShoulder -28.389335 -46.707096 21.775634
RightArm 61.378234 -18.814076 48.193876
RightForeArm 22.397139 -0.000000 5.193934
RightHand -6.484459 -0.000000 16.679641
RightHandThumb1 -24.326973 -0.000000 -32.862282
LeftUpLeg 8.622158 10.899685 -3.812458
LeftLeg 10.394102 -0.000000 -0.000000
LeftFoot -16.843540 -8.046786 -8.977157
LeftToeBase 16.398697 -0.000000 -0.000000
RightUpLeg -39.730668 13.502727 -9.891447
RightLeg 154.255343 -0.000000 -0.000000
RightFoot 8.963125 11.634299 6.219042
RightToeBase 1.076598 -0.000000 -0.000000
